<?xml version="1.0" standalone="no"?>
<svg version="1.1" id="Layer_1_99_" xmlns="http://www.w3.org/2000/svg" xmlns:xlink="http://www.w3.org/1999/xlink" x="0px" y="0px" viewBox="0 0 595.276 595.276" enable-background="new 0 0 595.276 595.276" xml:space="preserve">
<path id="color_x5F_6" fill-rule="evenodd" clip-rule="evenodd" fill="#FFCBD5" d="M199.966,475.804h-30.152
	c-2.474,0-4.633-0.686-6.537-1.86c-0.081-0.071-0.174-0.129-0.273-0.171c-1.328-0.863-2.524-1.973-3.616-3.246
	c-0.04-0.054-0.086-0.104-0.136-0.149c-0.406-0.482-0.797-0.986-1.173-1.512c-2.909-4.069-4.855-9.303-6.065-13.637
	c-0.983-3.549-1.657-7.176-2.012-10.842c-7.677-79.792,1.174-137.246,14.063-177.119v-0.001c28.695,11.88,57.513,12.256,86.225,0.01
	c12.887,39.872,21.735,97.325,14.061,177.11c-0.355,3.664-1.029,7.291-2.011,10.84c-1.213,4.335-3.159,9.569-6.07,13.639
	c-1.422,1.991-3.051,3.691-4.933,4.91c-0.095,0.042-0.182,0.098-0.26,0.166c-1.904,1.175-4.064,1.862-6.541,1.862h-30.152
	c1.224-29.493,2.434-58.633,3.127-75.322c0.116-2.816-0.921-5.559-2.872-7.593c-1.952-2.034-4.648-3.181-7.466-3.181
	c-2.818,0-5.514,1.148-7.465,3.181c-0.001,0.001-0.002,0.001-0.002,0.002c-1.951,2.034-2.986,4.775-2.87,7.591L199.966,475.804
	L199.966,475.804z M386.575,366.286c0.245,0.025,0.469,0.153,0.617,0.36c1.196,1.669,3.531,4.931,3.531,4.931
	c0.188,0.262,0.49,0.418,0.813,0.418h2.552v8.975c-2.98-0.062-6.324-0.391-9.321-0.997c-3.33-0.673-6.219-1.739-7.509-2.85
	c-1.877-1.619-1.838-3.819-1.687-5.072c0.012-0.033,0.029-0.057,0.068-0.057h10.294c0.004,0,0.008,0,0.012,0
	c0.548,0,0.999-0.45,0.999-0.999c0-0.206-0.063-0.408-0.182-0.575c-0.06-0.12-0.628-1.257-1.25-2.501c-0.16-0.32-0.16-0.695,0-1.015
	c0.16-0.32,0.46-0.544,0.813-0.608c0.001,0,0.002,0,0.002,0C386.411,366.282,386.494,366.279,386.575,366.286L386.575,366.286
	L386.575,366.286z M340.411,336.695h47.126l15.528,33.301h-11.016c-0.339-0.473-2.136-2.982-3.233-4.513l-0.002-0.002
	c-0.621-0.868-1.678-1.311-2.729-1.165c-0.038,0.002-0.076,0.006-0.113,0.012h-0.002c-0.971,0.176-1.803,0.801-2.243,1.682
	c-0.441,0.881-0.441,1.922,0,2.803c0.294,0.588,0.355,0.71,0.59,1.183h-28.865c-0.485,0-0.921-0.277-1.126-0.716
	c-2.412-5.172-11.383-24.412-14.654-31.427c-0.118-0.253-0.099-0.545,0.051-0.782C339.875,336.835,340.13,336.695,340.411,336.695
	L340.411,336.695L340.411,336.695z M207.176,303.709c-16.255,0-29.454,13.198-29.454,29.454c0,16.256,13.199,29.456,29.454,29.456
	c16.256,0,29.456-13.2,29.456-29.456C236.632,316.907,223.432,303.709,207.176,303.709z M368.064,348.127
	c-1.844,0-3.397,0.82-4.134,2.201c-0.736,1.38-0.641,3.148,0.186,4.923c1.655,3.55,5.577,6.277,9.264,6.277
	c1.844,0,3.397-0.818,4.134-2.198s0.642-3.149-0.185-4.923C375.687,350.885,371.814,348.171,368.064,348.127L368.064,348.127z
	 M409.966,275.751L409.966,275.751L409.966,275.751L409.966,275.751c3.74,6.393,10.753,9.45,10.753,9.45
	c0.361,0.151,0.778,0.076,1.065-0.19c0,0,0.179-0.166,0.47-0.436l0.002-0.002c0.949-0.881,2.28-1.212,3.531-0.876
	c1.251,0.336,2.237,1.287,2.616,2.526c0,0.001,0,0.001,0,0.002c0.117,0.381,0.232,0.753,0.342,1.116
	c0.001,0.001,0.001,0.001,0.002,0.002c0.58,1.893-0.393,3.891-2.239,4.604c-1.279,0.492-2.358,0.909-2.358,0.909
	c-0.465,0.18-0.728,0.681-0.611,1.167l1.637,6.763c0.009,0.104,0.034,0.206,0.074,0.303l2.953,12.211
	c-3.737,0.64-7.95,1.36-11.31,1.936l-1.19-4.19c-0.123-0.428-0.516-0.726-0.961-0.726c-0.109,0-0.217,0.018-0.32,0.053
	c0,0-1.788,0.602-4.128,1.392c-2.487,0.839-5.212,0.578-7.494-0.719c-2.282-1.298-3.903-3.507-4.454-6.073
	c-1.947-9.066-4.167-19.414-4.439-20.682c3.239,0.078,6.196-0.878,8.645-2.242C406.657,279.762,408.989,276.991,409.966,275.751
	L409.966,275.751z M415.614,295.565c-0.163-0.003-0.324,0.034-0.468,0.107l-9.042,4.605c-0.335,0.171-0.545,0.515-0.545,0.891
	c0,0.186,0.052,0.368,0.15,0.525c0,0,1.075,1.756,2.698,3.274c0.811,0.758,1.766,1.479,2.879,1.88
	c1.113,0.402,2.441,0.435,3.65-0.234c1.197-0.662,1.911-1.767,2.249-2.906c0.339-1.14,0.354-2.335,0.254-3.432
	c-0.201-2.193-0.902-4.061-0.902-4.061C416.405,295.859,416.082,295.611,415.614,295.565L415.614,295.565z M371.149,234.33
	c0.447,0.025,0.89,0.142,1.299,0.35c0.817,0.415,1.422,1.156,1.668,2.041c0.639,2.309,1.41,5.101,2.029,7.336
	c0.571,2.068-0.116,4.272-1.762,5.646c0,0,0,0.001,0,0.002c-1.955,1.633-4.085,3.412-4.085,3.412
	c-0.226,0.19-0.357,0.47-0.357,0.766v3.014l-12.368,2.546c-0.216-1.041-1.741-8.389-2.927-14.108h0.002
	c-0.566-2.73,0.93-5.449,3.539-6.43v0.002c3.588-1.348,8.262-3.107,11.632-4.374C370.247,234.372,370.701,234.305,371.149,234.33
	L371.149,234.33L371.149,234.33z"></path>
<path id="color_x5F_5" fill-rule="evenodd" clip-rule="evenodd" fill="#ffceaf" d="M432.837,513.386h17.327v12.629
	c0,1.73-1.382,3.109-3.111,3.109h-26.858c-1.68,0-3.019-1.339-3.019-3.019v-0.002c0-0.95,0.455-1.838,1.227-2.39
	C422.474,520.799,432.476,513.643,432.837,513.386L432.837,513.386L432.837,513.386z M407.414,529.123H377.77
	c-1.634,0-2.938-1.301-2.938-2.935c0-0.967,0.498-1.863,1.32-2.374c4.637-2.878,16.457-10.217,16.799-10.428h17.576v12.629
	c0,0.825-0.328,1.616-0.911,2.198C409.032,528.797,408.241,529.123,407.414,529.123L407.414,529.123z M317.085,529.123h-2.006
	c-0.898-0.8-1.586-1.984-1.859-3.052c-0.002-0.008-0.004-0.016-0.006-0.024c-3.149-11.184-15.635-43.364-55.756-55.452
	c0.144-0.191,0.3-0.372,0.438-0.566c3.133-4.383,5.122-9.8,6.369-14.264c0-0.001,0-0.002,0-0.004
	c1.014-3.66,1.708-7.401,2.073-11.181c0-0.001,0-0.001,0-0.002c1.798-18.691,2.682-36.152,2.831-52.473l0,0
	c1.321,0.497,3.639,1.499,6.819,3.533c4.904,3.137,11.496,8.557,18.163,17.689c13.335,18.265,26.989,51.408,27.841,110.873
	c0,0,0,0.001,0,0.002c0.02,1.297-0.48,2.548-1.39,3.472c-0.911,0.924-2.154,1.445-3.451,1.445
	C317.129,529.12,317.107,529.122,317.085,529.123L317.085,529.123z M207.178,529.123h-0.002c-1.686,0-3.053-1.309-3.123-2.994
	c-0.137-3.288-0.653-15.747-0.921-22.197c0.014-0.113,0.009-0.227-0.015-0.338c-0.324-7.794-0.676-16.289-1.107-26.664
	c0.015-0.113,0.011-0.229-0.013-0.341c-1.232-29.698-2.462-59.308-3.162-76.191c-0.094-2.272,0.743-4.486,2.317-6.127
	c1.574-1.642,3.749-2.568,6.024-2.568l0,0c2.274,0,4.45,0.926,6.024,2.568c1.575,1.641,2.412,3.854,2.318,6.127
	c-0.701,16.884-1.93,46.497-3.162,76.196c-0.023,0.11-0.028,0.222-0.014,0.333c-0.43,10.374-0.783,18.87-1.106,26.667
	c-0.025,0.112-0.031,0.228-0.016,0.342c-0.268,6.449-0.784,18.906-0.921,22.193C210.229,527.814,208.863,529.123,207.178,529.123
	L207.178,529.123z M97.222,529.119h-0.01c-1.297,0-2.54-0.52-3.451-1.445c-0.911-0.924-1.41-2.174-1.39-3.472
	c0-0.001,0-0.002,0-0.002c0.852-59.465,14.505-92.608,27.841-110.873c6.667-9.133,13.258-14.552,18.163-17.689
	c3.175-2.031,5.488-3.032,6.811-3.531l0,0c0.149,16.32,1.032,33.781,2.831,52.471c0.366,3.781,1.06,7.523,2.073,11.183
	c0,0.001,0,0.001,0,0.002c1.245,4.465,3.231,9.883,6.363,14.266c0.14,0.196,0.296,0.379,0.44,0.57
	c-40.112,12.09-52.597,44.264-55.746,55.448c-0.002,0.008-0.004,0.016-0.006,0.024C100.683,527.869,99.075,529.114,97.222,529.119
	L97.222,529.119z M425.977,369.997h-20.708l-15.53-33.301h0.472c0.627,0,1.192,0.361,1.457,0.929
	c2.934,6.292,14.007,30.04,14.11,30.262c0.073,0.245,0.237,0.453,0.458,0.581c0.003,0.001,0.005,0.002,0.008,0.004
	c0.018,0.011,0.037,0.021,0.056,0.031c0.183,0.093,0.389,0.128,0.591,0.1h0.597c0.181,0.052,0.373,0.052,0.554,0h18.253
	L425.977,369.997z M207.176,305.706c15.177,0,27.459,12.28,27.459,27.457c0,15.177-12.282,27.459-27.459,27.459
	s-27.457-12.282-27.457-27.459C179.719,317.986,191.999,305.706,207.176,305.706z M207.176,310.318
	c-12.606,0-22.845,10.24-22.845,22.845c0,12.606,10.24,22.847,22.845,22.847s22.847-10.242,22.847-22.847
	C230.023,320.557,219.782,310.318,207.176,310.318z M413.57,253.559c5.683-0.031,9.785,1.935,11.482,5.913
	c0.134,0.314,0.42,0.537,0.757,0.593c0,0,0.26,0.036,0.844,0.289c0.585,0.253,1.424,0.708,2.382,1.527
	c1.916,1.638,4.321,4.726,6.024,10.59c2.147,7.396,0.043,18.819-8.31,26.33l-1.063-4.398c0.419-0.162,0.704-0.273,1.539-0.594
	c2.807-1.083,4.312-4.173,3.431-7.05v-0.002c-0.111-0.365-0.227-0.738-0.344-1.118v-0.002c-0.579-1.893-2.096-3.357-4.008-3.87
	c-1.879-0.504-3.873,0-5.319,1.295c-0.819-0.371-7.19-3.326-10.036-9.36c-0.165-0.35-0.518-0.573-0.904-0.573
	c-0.323,0-0.626,0.157-0.813,0.418c0,0-2.989,4.158-7.651,6.754c-2.492,1.387-5.392,2.335-8.619,1.992
	c-0.106-0.033-0.217-0.049-0.328-0.047c-0.03,0.002-0.06,0.004-0.09,0.008c-2.632-0.37-5.474-1.616-8.488-4.2
	c-0.122-0.326-0.891-2.488-0.289-5.791c0.648-3.562,2.922-8.164,9.921-12.325C400.768,255.73,407.886,253.59,413.57,253.559
	L413.57,253.559L413.57,253.559z M207.176,190.901c1.733,1.491,19.127,17.005,35.072,54.683c2.553,6.03,5.051,12.622,7.423,19.788
	c-28.36,12.145-56.61,11.779-84.987-0.01c2.371-7.162,4.87-13.751,7.421-19.779C188.05,207.906,205.443,192.392,207.176,190.901
	L207.176,190.901L207.176,190.901z"></path>
<path id="color_x5F_4" fill-rule="evenodd" clip-rule="evenodd" fill="#788fdb" d="M497.475,529.123h-13.162
	c-1.157-1.128-2.287-2.314-3.359-3.591c-8.287-9.875-11.641-21.911-10.228-29.779l0,0c7.197-0.059,17.046,4.267,25.011,12.378
	c-0.003,0.241-0.008,0.481-0.008,0.723c0,0.958,0.028,1.905,0.078,2.845c0.031,0.591,0.086,1.174,0.135,1.758
	c0.028,0.321,0.045,0.645,0.078,0.964c0.505,4.968,1.661,9.641,3.291,13.784l-18.995-22.639c-0.193-0.236-0.483-0.371-0.788-0.367
	c-0.543,0.007-0.987,0.455-0.987,0.999c0,0.241,0.087,0.472,0.244,0.654L497.475,529.123L497.475,529.123z M535.037,529.123h-13.162
	l18.688-22.271c0.157-0.182,0.244-0.414,0.244-0.654c0-0.547-0.451-0.999-1-0.999c-0.005,0-0.011,0-0.017,0
	c-0.294,0.005-0.57,0.14-0.756,0.367l-18.025,21.48c1.402-3.851,2.409-8.11,2.87-12.625c0.033-0.319,0.05-0.643,0.078-0.964
	c0.049-0.584,0.104-1.167,0.135-1.758c0.05-0.94,0.078-1.887,0.078-2.845c0-0.424-0.01-0.843-0.02-1.263
	c7.866-7.769,17.439-11.897,24.474-11.84l0,0c1.414,7.867-1.941,19.905-10.228,29.781
	C537.325,526.809,536.194,527.996,535.037,529.123L535.037,529.123z M508.951,529.123h-7.061
	c-2.219-5.026-3.738-11.019-4.087-17.453c-0.049-0.93-0.076-1.869-0.076-2.816c0-13.887,5.584-26.138,12.223-31.604l0,0
	c6.64,5.465,12.222,17.716,12.222,31.604c0,0.947-0.027,1.886-0.076,2.816c-0.05,0.911-0.122,1.814-0.217,2.706
	c-0.001,0.005-0.001,0.01-0.002,0.015c-0.577,5.401-1.966,10.422-3.868,14.732h-7.06v-37.086c0-0.004,0-0.009,0-0.013
	c0-0.548-0.45-0.999-0.999-0.999c-0.005,0-0.01,0-0.015,0c-0.547,0.008-0.991,0.465-0.984,1.012L508.951,529.123L508.951,529.123z
	 M447.914,395.847h-38.583v-8.743h21.667c6.409,0,11.971-4.46,13.365-10.716c0.958-4.3,2.291-10.283,3.552-15.943V395.847z
	 M444.944,321.601c2.33,0,4.532,1.057,5.991,2.876s2.011,4.2,1.504,6.474c-1.238,5.558-2.861,12.833-4.489,20.143
	c-0.01,0.036-0.018,0.073-0.024,0.11c-2.002,8.983-4.027,18.074-5.514,24.749c-1.193,5.353-5.93,9.153-11.414,9.153H408.5
	c-0.108-0.018-0.218-0.018-0.327,0h-8.525v-0.176c0.018-0.108,0.018-0.218,0-0.326v-12.61h27.123c0.464,0,0.87-0.323,0.974-0.774
	c0,0,0.674-2.931,0.745-3.243c0.039-0.097,0.062-0.2,0.069-0.304c0.969-4.223,6.407-27.919,9.274-40.41
	c0.761-3.319,3.703-5.663,7.108-5.663H444.944L444.944,321.601z M426.755,366.605h-18.059l-1.404-21.113
	c0.035-0.245-0.023-0.493-0.162-0.698c-0.012-0.019-0.024-0.037-0.037-0.055c-0.001-0.001-0.003-0.003-0.004-0.004
	c-0.067-0.094-0.151-0.176-0.246-0.242c-0.151-0.138-24.442-22.231-35.213-32.028c-3.108-2.826-5.259-6.548-6.16-10.651
	c-2.508-11.419-7.206-32.798-7.481-34.049c0.186,0.009,0.371-0.035,0.532-0.127l16.449-3.554c0.27,1.466,4.705,25.594,6.165,33.525
	c0.323,1.758,1.2,3.367,2.501,4.592c3.585,3.376,11.784,11.096,16.597,15.628c2.572,2.421,5.972,3.77,9.504,3.77h4.603
	c0.547-0.001,0.998-0.451,0.998-0.999c0-0.079-0.01-0.158-0.028-0.234c0,0-0.278-1.156-0.526-2.185
	c-0.034-0.139-0.008-0.286,0.07-0.405c0.08-0.121,0.205-0.205,0.346-0.229c0.224-0.038,0.734-0.125,0.997-0.17
	c0.101-0.002,0.202-0.02,0.298-0.052c3.524-0.603,8.912-1.525,12.883-2.204c0.148,0.007,0.296-0.018,0.432-0.075
	c0.721-0.123,1.938-0.331,2.44-0.417c0.264-0.045,0.5,0.101,0.582,0.354c0.66,2.059,1.9,5.923,1.9,5.923
	c0.132,0.412,0.518,0.694,0.952,0.694h3.51c-1.622,1.278-2.82,3.091-3.307,5.217L426.755,366.605L426.755,366.605z M430.157,321.232
	c-0.09-0.002-0.18,0.009-0.267,0.031c-6.48,1.569-12.532,0.299-12.532,0.299c-0.069-0.015-0.139-0.022-0.209-0.022
	c-0.547,0-0.999,0.45-0.999,0.999c0,0.47,0.332,0.88,0.792,0.978c0,0,6.422,1.382,13.417-0.313c0.452-0.104,0.775-0.509,0.775-0.973
	C431.135,321.691,430.697,321.243,430.157,321.232L430.157,321.232L430.157,321.232z"></path>
<path id="color_x5F_3" fill-rule="evenodd" clip-rule="evenodd" fill="#b3a1a1" d="M447.914,397.844v7.941
	c0,6.202-0.424,12.4-1.271,18.543c-1.6,11.61-4.247,30.807-5.223,37.888c-0.265,1.918-0.212,3.866,0.155,5.766l8.376,43.405h-16.642
	c-0.265-1.154-7.686-33.425-10.021-43.582c-0.421-1.831-0.509-3.721-0.262-5.583c1.326-9.98,5.515-41.483,5.515-41.483
	c0.006-0.044,0.009-0.089,0.009-0.133c0-0.548-0.451-0.999-0.999-0.999h-0.001h-3.913c-0.385,0-0.736,0.222-0.902,0.567
	c0,0-10.588,22.184-15.959,33.43h-0.002c-2.069,4.338-2.836,9.182-2.202,13.946l5.811,43.836h-16.861
	c-0.175-1.155-4.783-31.594-6.822-45.053c-0.577-3.815-0.177-7.714,1.163-11.332c5.73-15.475,20.818-56.228,21.162-57.158H447.914
	L447.914,397.844z M234.143,502.808h-20.878c0.309-7.421,0.636-15.32,1.039-25.007h30.234c1.891,0,3.627-0.362,5.312-1.029
	c-1.003,2.564-5.2,13.291-8.173,20.891C240.464,500.769,237.476,502.809,234.143,502.808L234.143,502.808z M201.085,502.808h-20.877
	c-3.334,0-6.32-2.039-7.534-5.145l-8.174-20.891c1.619,0.653,3.386,1.029,5.313,1.029h30.234L201.085,502.808L201.085,502.808z"></path>
<path id="color_x5F_2" fill-rule="evenodd" clip-rule="evenodd" fill="#ff9270" d="M397.651,383.763h-1.566v-1.615
	c0.016-0.104,0.016-0.209,0-0.313v-9.841h1.566V383.763z M368.064,350.124c2.606,0,6.174,2.382,7.454,5.127
	c0.64,1.372,0.597,2.454,0.232,3.137c-0.365,0.683-1.067,1.143-2.37,1.143c-2.605,0-6.173-2.379-7.454-5.124
	c-0.639-1.372-0.598-2.456-0.234-3.139C366.057,350.585,366.761,350.124,368.064,350.124z M207.176,312.315
	c11.526,0,20.85,9.322,20.85,20.848c0,11.526-9.324,20.85-20.85,20.85c-11.526,0-20.848-9.324-20.848-20.85
	C186.328,321.637,195.65,312.315,207.176,312.315z M414.911,298.034c0.194,0.624,0.421,1.144,0.537,2.423
	c0.085,0.936,0.051,1.905-0.18,2.683c-0.231,0.777-0.608,1.342-1.301,1.726c-0.68,0.376-1.282,0.362-2.004,0.102
	c-0.721-0.261-1.504-0.814-2.194-1.459c-0.969-0.906-1.283-1.468-1.658-2.012L414.911,298.034L414.911,298.034z M371.783,258.557
	l0.938,3.969l-13.916,3.01l-0.831-4.136L371.783,258.557L371.783,258.557z M207.166,141.789c18.938,0,36.068,8.818,44.737,22.868
	c0.001,0.001,0.001,0.001,0.002,0.002c1.814,2.92,0.895,6.727-1.972,8.517c-2.888,1.803-6.639,0.931-8.43-1.992
	c-0.001-0.001-0.001-0.002-0.002-0.004c-6.446-10.424-19.895-17.028-34.335-17.028c-14.43,0-27.889,6.603-34.325,17.028
	c-0.001,0.001-0.001,0.002-0.002,0.002c-1.8,2.923-5.549,3.796-8.437,1.996l-0.002-0.002c-1.868-1.173-2.895-3.19-2.895-5.261
	c0-1.118,0.293-2.229,0.927-3.258h-0.002C171.107,150.607,188.238,141.789,207.166,141.789L207.166,141.789L207.166,141.789z
	 M207.17,106.626c31.412,0,59.813,14.499,74.135,37.709c1.877,3.058,0.964,7.048-2.066,8.952c-3.038,1.896-6.98,0.966-8.875-2.09
	v-0.002c-12.052-19.55-36.272-31.591-63.193-31.591s-51.151,12.041-63.202,31.593c-1.885,3.055-5.839,3.984-8.868,2.088
	c-1.963-1.229-3.037-3.351-3.037-5.53c0-1.173,0.31-2.346,0.966-3.424C147.35,121.125,175.76,106.626,207.17,106.626L207.17,106.626
	L207.17,106.626z M207.164,65.404c44.787,0,85.24,20.59,105.616,53.603c1.876,3.068,0.954,7.045-2.077,8.95
	c-3.039,1.894-6.98,0.964-8.864-2.091c-18.105-29.342-54.396-47.475-94.674-47.475c-40.277,0-76.549,18.133-94.654,47.475
	c-1.885,3.055-5.838,3.985-8.866,2.091c-1.963-1.229-3.039-3.353-3.039-5.53c0-1.171,0.31-2.342,0.964-3.42l0.004-0.006
	C121.949,85.992,162.401,65.404,207.164,65.404L207.164,65.404z"></path>
<path id="color_x5F_1" fill="#212121" d="M207.164,63.407c-45.378,0-86.497,20.849-107.298,54.551
	c0,0.002-0.001,0.004-0.002,0.006c-0.846,1.392-1.257,2.935-1.257,4.464c0,2.839,1.413,5.619,3.975,7.223
	c3.948,2.471,9.176,1.236,11.627-2.735v-0.002c17.672-28.638,53.278-46.525,92.955-46.525c39.678,0,75.301,17.888,92.973,46.525
	c2.449,3.971,7.671,5.207,11.627,2.737c0,0,0.001-0.001,0.002-0.002c3.944-2.479,5.153-7.71,2.717-11.689
	c0,0-0.001-0.001-0.002-0.002C293.681,84.256,252.562,63.407,207.164,63.407L207.164,63.407z M207.164,65.404
	c44.787,0,85.24,20.59,105.616,53.603c1.876,3.068,0.954,7.045-2.077,8.95c-3.039,1.894-6.98,0.964-8.864-2.091
	c-18.105-29.342-54.396-47.475-94.674-47.475c-40.277,0-76.549,18.133-94.654,47.475c-1.885,3.055-5.838,3.985-8.866,2.091
	c-1.963-1.229-3.039-3.353-3.039-5.53c0-1.171,0.31-2.342,0.964-3.42l0.004-0.006C121.949,85.992,162.401,65.404,207.164,65.404
	L207.164,65.404z M207.17,104.629c-32.025,0-61.1,14.763-75.845,38.66c-0.001,0.001-0.002,0.002-0.002,0.004
	c-0.847,1.391-1.258,2.934-1.258,4.463c0,2.84,1.413,5.62,3.975,7.224c3.949,2.471,9.177,1.237,11.627-2.736
	c11.615-18.842,35.178-30.642,61.503-30.642c26.326,0,49.878,11.8,61.493,30.642c0,0.001,0,0.002,0,0.002
	c2.46,3.969,7.679,5.203,11.635,2.734c0.001-0.001,0.003-0.002,0.004-0.002c3.945-2.48,5.142-7.718,2.704-11.687
	c0-0.001,0-0.002,0-0.002C268.261,119.392,239.196,104.629,207.17,104.629L207.17,104.629z M207.17,106.626
	c31.412,0,59.813,14.499,74.135,37.709c1.877,3.058,0.964,7.048-2.066,8.952c-3.038,1.896-6.98,0.966-8.875-2.09v-0.002
	c-12.052-19.55-36.272-31.591-63.193-31.591s-51.151,12.041-63.202,31.593c-1.885,3.055-5.839,3.984-8.868,2.088
	c-1.963-1.229-3.037-3.351-3.037-5.53c0-1.173,0.31-2.346,0.966-3.424C147.35,121.125,175.76,106.626,207.17,106.626L207.17,106.626
	z M207.166,139.791c-19.547,0-37.339,9.086-46.436,23.816c-0.83,1.347-1.224,2.838-1.224,4.308c0,2.735,1.368,5.408,3.833,6.955
	c0.001,0,0.002,0.001,0.002,0.002c3.803,2.373,8.834,1.197,11.197-2.642c5.977-9.68,18.809-16.079,32.626-16.079
	c13.826,0,26.647,6.397,32.634,16.077c2.354,3.84,7.386,5.016,11.189,2.644c3.786-2.365,4.998-7.422,2.612-11.264v-0.002
	C244.514,148.875,226.723,139.791,207.166,139.791L207.166,139.791L207.166,139.791z M207.166,141.789
	c18.938,0,36.068,8.818,44.737,22.868c0.001,0.001,0.001,0.001,0.002,0.002c1.814,2.92,0.895,6.727-1.972,8.517
	c-2.888,1.803-6.639,0.931-8.43-1.992c-0.001-0.001-0.001-0.002-0.002-0.004c-6.446-10.424-19.895-17.028-34.335-17.028
	c-14.43,0-27.889,6.603-34.325,17.028c-0.001,0.001-0.001,0.002-0.002,0.002c-1.8,2.923-5.549,3.796-8.437,1.996l-0.002-0.002
	c-1.868-1.173-2.895-3.19-2.895-5.261c0-1.118,0.293-2.229,0.927-3.258h-0.002C171.107,150.607,188.238,141.789,207.166,141.789
	L207.166,141.789L207.166,141.789z M207.168,188.527c-0.23,0.001-0.452,0.083-0.63,0.23c0,0-19.358,16.083-36.272,56.049
	c-2.659,6.281-5.259,13.155-7.718,20.651c-0.056,0.106-0.092,0.221-0.107,0.34c-9.95,30.458-17.545,71.172-17.268,124.183
	c-1.262,0.439-4.12,1.575-7.873,3.975c-5.101,3.262-11.887,8.86-18.702,18.195c-13.63,18.67-27.369,52.264-28.225,112.024
	c-0.028,1.832,0.68,3.6,1.966,4.904c0.017,0.017,0.035,0.031,0.051,0.047H50.48c-0.005,0-0.009,0-0.014,0
	c-0.548,0-0.999,0.451-0.999,0.999c0,0.548,0.45,0.999,0.999,0.999c0.005,0,0.009,0,0.014,0h448.938
	c0.145,0.033,0.294,0.033,0.437,0h9.927c0.108,0.018,0.219,0.018,0.327,0h57.197c0.005,0,0.01,0,0.014,0
	c0.548,0,0.999-0.45,0.999-0.999c0-0.547-0.45-0.999-0.999-0.999c-0.004,0-0.009,0-0.014,0H537.86
	c0.704-0.743,1.395-1.508,2.065-2.307c0.001,0,0.001,0,0.002,0c8.925-10.637,12.559-23.582,10.524-32.367
	c-0.101-0.432-0.477-0.748-0.921-0.771c-7.557-0.401-17.294,3.649-25.517,11.238c-0.937-13.196-6.462-24.536-13.463-29.804
	c-0.188-0.142-0.42-0.212-0.655-0.199c-0.198,0.011-0.389,0.08-0.546,0.199c-7.084,5.332-12.667,16.88-13.502,30.281
	c-8.326-7.899-18.314-12.125-26.028-11.716c-0.443,0.023-0.821,0.34-0.921,0.772c-2.034,8.785,1.6,21.729,10.526,32.366
	c0.67,0.799,1.363,1.564,2.068,2.307H451.07c0.673-0.865,1.091-1.936,1.091-3.109v-13.628c0-0.01-0.001-0.02-0.002-0.031
	c-0.001-0.084-0.013-0.168-0.035-0.25c-0.001-0.005-0.003-0.01-0.004-0.015c-0.032-0.166-6.651-34.465-8.586-44.485
	c-0.325-1.686-0.371-3.415-0.136-5.115c0.976-7.081,3.622-26.28,5.222-37.89c0.859-6.234,1.291-12.521,1.291-18.815v-8.94v-45.367
	c1.625-7.292,3.242-14.55,4.477-20.095c0.638-2.865-0.06-5.866-1.896-8.156c-1.836-2.29-4.614-3.625-7.55-3.625h-0.002
	c-0.008,0-0.015,0.002-0.023,0.002c-0.012-0.001-0.025-0.002-0.037-0.002h-8.471c-0.234-0.731-1.095-3.413-1.677-5.23
	c-0.381-1.187-1.592-1.922-2.821-1.711c-0.359,0.061-1.263,0.216-1.737,0.297l-2.888-11.936c9.669-8.031,12.151-20.629,9.689-29.111
	c-1.792-6.171-4.41-9.64-6.644-11.551c-1.118-0.955-2.134-1.517-2.887-1.843c-0.487-0.211-0.622-0.22-0.849-0.276
	c-2.195-4.503-7.082-6.716-13.036-6.683c-6.171,0.034-13.564,2.305-20.889,6.66c-7.401,4.4-10.123,9.591-10.868,13.684
	c-0.746,4.093,0.462,7.134,0.462,7.134c0.058,0.146,0.149,0.276,0.267,0.381c3.182,2.79,6.329,4.19,9.292,4.675
	c0.144,0.672,2.565,11.96,4.568,21.295c0.67,3.122,2.642,5.81,5.417,7.389c2.777,1.579,6.098,1.897,9.124,0.876
	c1.777-0.6,2.534-0.855,3.132-1.058l0.845,2.975c-0.011,0.002-0.038,0.006-0.049,0.008c0,0-0.001,0-0.002,0
	c-0.686,0.118-1.292,0.514-1.675,1.095c-0.001,0.001-0.002,0.002-0.002,0.004c-0.383,0.581-0.505,1.296-0.342,1.974
	c0.108,0.448,0.136,0.56,0.23,0.95h-3.336c-3.023,0-5.932-1.154-8.134-3.226c-4.813-4.532-13.012-12.252-16.597-15.628
	c-0.992-0.934-1.658-2.159-1.905-3.5c-1.503-8.172-6.353-34.54-6.353-34.54c-0.087-0.476-0.508-0.824-0.993-0.819
	c-0.068,0.001-0.135,0.009-0.201,0.023l-0.878,0.19l-1.173-4.949c-0.111-0.472-0.55-0.799-1.034-0.769
	c-0.047,0.004-0.093,0.01-0.139,0.02l-0.392,0.08v-2.136c0.325-0.272,1.942-1.623,3.723-3.113c2.244-1.874,3.186-4.893,2.407-7.712
	c-0.618-2.235-1.389-5.026-2.029-7.336c-0.395-1.424-1.37-2.619-2.686-3.289c-0.659-0.335-1.373-0.524-2.095-0.564
	c-0.722-0.04-1.452,0.07-2.144,0.33v-0.002c-3.37,1.266-8.044,3.025-11.632,4.374c-3.517,1.322-5.555,5.026-4.793,8.704
	c1.267,6.104,3.116,15.022,3.123,15.056c0.001,0.008,0.003,0.016,0.004,0.024l0.002,0.006l1.032,5.132l-0.265,0.059
	c-0.458,0.099-0.788,0.507-0.788,0.976c0,0.072,0.008,0.144,0.023,0.214c0,0,5.117,23.287,7.698,35.037
	c0.99,4.507,3.353,8.595,6.767,11.699c10.713,9.744,34.616,31.485,35.024,31.856l1.271,19.082
	c-1.468-3.148-10.378-22.258-13.103-28.1c0-0.001,0-0.002,0-0.002c-0.591-1.267-1.869-2.079-3.267-2.079h-1.887
	c-0.07-0.012-0.14-0.016-0.211-0.012c-0.037,0.002-0.073,0.006-0.109,0.012H340.41c-0.958,0-1.854,0.49-2.37,1.298
	c0,0.001-0.001,0.002-0.002,0.002c-0.514,0.81-0.58,1.829-0.175,2.698c3.271,7.014,12.241,26.255,14.653,31.427
	c0.531,1.14,1.68,1.871,2.936,1.871h18.111c-0.161,1.584-0.086,4.507,2.389,6.641c0.001,0,0.002,0.001,0.002,0.002
	c1.857,1.6,4.928,2.589,8.414,3.295c3.151,0.637,6.607,0.974,9.719,1.036v1.795c0,0.547,0.45,0.999,0.999,0.999h2.565v0.343
	c0,0.548,0.45,0.999,0.999,0.999h8.682v9.563c-0.09,0.243-15.563,42.038-21.341,57.644c-1.457,3.935-1.893,8.174-1.264,12.323
	c2.048,13.519,6.717,44.361,6.852,45.252c-0.763,0.473-11.931,7.408-16.48,10.232c0,0.001,0,0.001,0,0.002
	c-1.405,0.874-2.265,2.414-2.265,4.069c0,1.103,0.38,2.112,0.997,2.936h-51.857c0.017-0.017,0.035-0.031,0.051-0.047
	c1.286-1.305,1.994-3.073,1.967-4.904v-0.002c-0.857-59.758-14.595-93.352-28.226-112.022c-6.816-9.336-13.601-14.933-18.701-18.195
	c-3.759-2.404-6.622-3.542-7.881-3.98c0.275-52.978-7.312-93.673-17.253-124.124c-0.011-0.158-0.06-0.312-0.142-0.446
	c-2.454-7.476-5.048-14.332-7.7-20.598c-16.913-39.965-36.274-56.05-36.274-56.05C207.632,188.607,207.404,188.525,207.168,188.527
	L207.168,188.527L207.168,188.527z M207.176,190.901c1.733,1.491,19.127,17.005,35.072,54.683c2.553,6.03,5.051,12.622,7.423,19.788
	c-28.36,12.145-56.61,11.779-84.987-0.01c2.371-7.162,4.87-13.751,7.421-19.779C188.05,207.906,205.443,192.392,207.176,190.901
	L207.176,190.901L207.176,190.901z M371.149,234.33c0.447,0.025,0.89,0.142,1.299,0.35c0.817,0.415,1.422,1.156,1.668,2.041
	c0.639,2.309,1.41,5.101,2.029,7.336c0.571,2.068-0.116,4.272-1.762,5.646c0,0,0,0.001,0,0.002
	c-1.955,1.633-4.085,3.412-4.085,3.412c-0.226,0.19-0.357,0.47-0.357,0.766v3.014l-12.368,2.546
	c-0.216-1.041-1.741-8.389-2.927-14.108h0.002c-0.566-2.73,0.93-5.449,3.539-6.43v0.002c3.588-1.348,8.262-3.107,11.632-4.374
	C370.247,234.372,370.701,234.305,371.149,234.33L371.149,234.33L371.149,234.33z M413.57,253.559
	c5.683-0.031,9.785,1.935,11.482,5.913c0.134,0.314,0.42,0.537,0.757,0.593c0,0,0.26,0.036,0.844,0.289
	c0.585,0.253,1.424,0.708,2.382,1.527c1.916,1.638,4.321,4.726,6.024,10.59c2.147,7.396,0.043,18.819-8.31,26.33l-1.063-4.398
	c0.419-0.162,0.704-0.273,1.539-0.594c2.807-1.083,4.312-4.173,3.431-7.05v-0.002c-0.111-0.365-0.227-0.738-0.344-1.118v-0.002
	c-0.579-1.893-2.096-3.357-4.008-3.87c-1.879-0.504-3.873,0-5.319,1.295c-0.819-0.371-7.19-3.326-10.036-9.36
	c-0.165-0.35-0.518-0.573-0.904-0.573c-0.323,0-0.626,0.157-0.813,0.418c0,0-2.989,4.158-7.651,6.754
	c-2.492,1.387-5.392,2.335-8.619,1.992c-0.106-0.033-0.217-0.049-0.328-0.047c-0.03,0.002-0.06,0.004-0.09,0.008
	c-2.632-0.37-5.474-1.616-8.488-4.2c-0.122-0.326-0.891-2.488-0.289-5.791c0.648-3.562,2.922-8.164,9.921-12.325
	C400.768,255.73,407.886,253.59,413.57,253.559L413.57,253.559L413.57,253.559z M371.783,258.557l0.938,3.969l-13.916,3.01
	l-0.831-4.136L371.783,258.557L371.783,258.557z M374.97,264.085c0.27,1.466,4.705,25.594,6.165,33.525
	c0.323,1.758,1.2,3.367,2.501,4.592c3.585,3.376,11.784,11.096,16.597,15.628c2.572,2.421,5.972,3.77,9.504,3.77h4.603
	c0.547-0.001,0.998-0.451,0.998-0.999c0-0.079-0.01-0.158-0.028-0.234c0,0-0.278-1.156-0.526-2.185
	c-0.034-0.139-0.008-0.286,0.07-0.405c0.08-0.121,0.205-0.205,0.346-0.229c0.224-0.038,0.734-0.125,0.997-0.17
	c0.101-0.002,0.202-0.02,0.298-0.052c3.524-0.603,8.912-1.525,12.883-2.204c0.148,0.007,0.296-0.018,0.432-0.075
	c0.721-0.123,1.938-0.331,2.44-0.417c0.264-0.045,0.5,0.101,0.582,0.354c0.66,2.059,1.9,5.923,1.9,5.923
	c0.132,0.412,0.518,0.694,0.952,0.694h3.51c-1.622,1.278-2.82,3.091-3.307,5.217c-2.823,12.299-8.046,35.058-9.131,39.788h-18.059
	l-1.404-21.113c0.035-0.245-0.023-0.493-0.162-0.698c-0.012-0.019-0.024-0.037-0.037-0.055c-0.001-0.001-0.003-0.003-0.004-0.004
	c-0.067-0.094-0.151-0.176-0.246-0.242c-0.151-0.138-24.442-22.231-35.213-32.028c-3.108-2.826-5.259-6.548-6.16-10.651
	c-2.508-11.419-7.206-32.798-7.481-34.049c0.186,0.009,0.371-0.035,0.532-0.127L374.97,264.085L374.97,264.085z M164.066,267.268
	c28.695,11.88,57.513,12.256,86.225,0.01c12.887,39.872,21.735,97.325,14.061,177.11c-0.355,3.664-1.029,7.291-2.011,10.84
	c-1.213,4.335-3.159,9.569-6.07,13.639c-1.422,1.991-3.051,3.691-4.933,4.91c-0.095,0.042-0.182,0.098-0.26,0.166
	c-1.904,1.176-4.065,1.862-6.541,1.862h-30.152c1.224-29.493,2.434-58.633,3.127-75.322c0.116-2.816-0.921-5.559-2.872-7.593
	c-1.952-2.034-4.648-3.181-7.466-3.181c-2.818,0-5.514,1.148-7.465,3.181c-0.001,0.001-0.002,0.001-0.002,0.002
	c-1.951,2.034-2.986,4.775-2.87,7.591c0.693,16.69,1.904,45.829,3.127,75.322h-30.152c-2.474,0-4.633-0.686-6.537-1.86
	c-0.081-0.071-0.174-0.129-0.273-0.171c-1.328-0.863-2.524-1.973-3.616-3.246c-0.04-0.054-0.086-0.104-0.136-0.149
	c-0.406-0.482-0.797-0.986-1.173-1.512c-2.909-4.069-4.855-9.303-6.065-13.637c-0.983-3.549-1.657-7.176-2.012-10.842
	c-7.677-79.792,1.174-137.246,14.063-177.119L164.066,267.268L164.066,267.268z M409.966,275.751
	c3.74,6.393,10.753,9.45,10.753,9.45c0.361,0.151,0.778,0.076,1.065-0.19c0,0,0.179-0.166,0.47-0.436l0.002-0.002
	c0.949-0.881,2.28-1.212,3.531-0.876c1.251,0.336,2.237,1.287,2.616,2.526c0,0.001,0,0.001,0,0.002
	c0.117,0.381,0.232,0.753,0.342,1.116c0.001,0.001,0.001,0.001,0.002,0.002c0.58,1.893-0.393,3.891-2.239,4.604
	c-1.279,0.492-2.358,0.909-2.358,0.909c-0.465,0.18-0.728,0.681-0.611,1.167l1.637,6.763c0.009,0.104,0.034,0.206,0.074,0.303
	l2.953,12.211c-3.737,0.64-7.95,1.36-11.31,1.936l-1.19-4.19c-0.123-0.428-0.516-0.726-0.961-0.726c-0.109,0-0.217,0.018-0.32,0.053
	c0,0-1.788,0.602-4.128,1.392c-2.487,0.839-5.212,0.578-7.494-0.719c-2.282-1.298-3.903-3.507-4.454-6.073
	c-1.947-9.066-4.167-19.414-4.439-20.682c3.239,0.078,6.196-0.878,8.645-2.242C406.657,279.762,408.989,276.991,409.966,275.751
	L409.966,275.751L409.966,275.751z M415.614,295.565c-0.163-0.003-0.324,0.034-0.468,0.107l-9.042,4.605
	c-0.335,0.171-0.545,0.515-0.545,0.891c0,0.186,0.052,0.368,0.15,0.525c0,0,1.075,1.756,2.698,3.274
	c0.811,0.758,1.766,1.479,2.879,1.88c1.113,0.402,2.441,0.435,3.65-0.234c1.197-0.662,1.911-1.767,2.249-2.906
	c0.339-1.14,0.354-2.335,0.254-3.432c-0.201-2.193-0.902-4.061-0.902-4.061C416.392,295.828,416.025,295.57,415.614,295.565
	L415.614,295.565z M414.911,298.034c0.194,0.624,0.421,1.144,0.537,2.423c0.085,0.936,0.051,1.905-0.18,2.683
	c-0.231,0.777-0.608,1.342-1.301,1.726c-0.68,0.376-1.282,0.362-2.004,0.102c-0.721-0.261-1.504-0.814-2.194-1.459
	c-0.969-0.906-1.283-1.468-1.658-2.012L414.911,298.034L414.911,298.034z M207.176,303.709c-16.255,0-29.454,13.198-29.454,29.454
	c0,16.256,13.199,29.456,29.454,29.456c16.256,0,29.456-13.2,29.456-29.456C236.632,316.907,223.432,303.709,207.176,303.709z
	 M207.176,305.706c15.177,0,27.459,12.28,27.459,27.457c0,15.177-12.282,27.459-27.459,27.459
	c-15.177,0-27.457-12.282-27.457-27.459C179.719,317.986,191.999,305.706,207.176,305.706z M207.176,310.318
	c-12.606,0-22.845,10.24-22.845,22.845c0,12.606,10.24,22.847,22.845,22.847s22.847-10.242,22.847-22.847
	C230.023,320.557,219.782,310.318,207.176,310.318z M207.176,312.315c11.526,0,20.85,9.322,20.85,20.848
	c0,11.526-9.324,20.85-20.85,20.85c-11.526,0-20.848-9.324-20.848-20.85C186.328,321.637,195.65,312.315,207.176,312.315z
	 M430.157,321.232c-0.09-0.002-0.18,0.009-0.267,0.031c-6.48,1.569-12.532,0.299-12.532,0.299c-0.069-0.015-0.139-0.022-0.209-0.022
	c-0.547,0-0.999,0.45-0.999,0.999c0,0.47,0.332,0.88,0.792,0.978c0,0,6.422,1.382,13.417-0.313c0.452-0.104,0.775-0.509,0.775-0.973
	C431.135,321.691,430.697,321.243,430.157,321.232L430.157,321.232L430.157,321.232z M444.942,321.601h0.002
	c2.33,0,4.532,1.057,5.991,2.876s2.011,4.2,1.504,6.474c-1.238,5.558-2.861,12.833-4.489,20.143c-0.01,0.036-0.018,0.073-0.024,0.11
	c-2.002,8.983-4.027,18.074-5.514,24.749c-1.193,5.353-5.93,9.153-11.414,9.153H408.5c-0.108-0.018-0.219-0.018-0.327,0h-8.525
	v-0.176c0.018-0.108,0.018-0.218,0-0.326v-12.61h27.123c0.464,0,0.87-0.323,0.974-0.774c0,0,0.674-2.931,0.745-3.243
	c0.039-0.097,0.062-0.2,0.069-0.304c0.969-4.223,6.407-27.919,9.274-40.41C438.595,323.945,441.537,321.601,444.942,321.601
	L444.942,321.601L444.942,321.601z M340.411,336.696h47.126l15.528,33.301h-4.415h-3.564h-3.037
	c-0.339-0.473-2.136-2.982-3.233-4.513l-0.002-0.002c-0.621-0.868-1.678-1.311-2.729-1.165c-0.038,0.002-0.076,0.006-0.113,0.012
	c-0.001,0-0.002,0-0.002,0c-0.97,0.176-1.803,0.801-2.243,1.682c-0.441,0.881-0.441,1.922,0,2.803
	c0.294,0.588,0.355,0.71,0.59,1.183h-28.865c-0.485,0-0.921-0.277-1.126-0.716c-2.412-5.172-11.383-24.412-14.654-31.427
	c-0.118-0.253-0.099-0.545,0.051-0.782C339.875,336.835,340.13,336.696,340.411,336.696L340.411,336.696L340.411,336.696z
	 M389.739,336.696h0.472c0.627,0,1.192,0.361,1.457,0.929c2.934,6.292,14.007,30.04,14.11,30.262
	c0.073,0.245,0.237,0.453,0.458,0.581c0.003,0.001,0.005,0.002,0.008,0.004c0.018,0.011,0.037,0.021,0.056,0.031
	c0.183,0.093,0.389,0.128,0.591,0.1h0.597c0.181,0.052,0.373,0.052,0.554,0h18.253c-0.021,0.09-0.313,1.36-0.32,1.394h-20.708
	L389.739,336.696z M368.064,348.127c-1.844,0-3.397,0.82-4.134,2.201c-0.736,1.38-0.641,3.148,0.186,4.923
	c1.655,3.55,5.577,6.277,9.264,6.277c1.844,0,3.397-0.818,4.134-2.198s0.642-3.149-0.185-4.923
	C375.674,350.857,371.751,348.127,368.064,348.127L368.064,348.127z M368.064,350.124c2.606,0,6.174,2.382,7.454,5.127
	c0.64,1.372,0.597,2.454,0.232,3.137c-0.365,0.683-1.067,1.143-2.37,1.143c-2.605,0-6.173-2.379-7.454-5.124
	c-0.639-1.372-0.598-2.456-0.234-3.139C366.057,350.585,366.761,350.124,368.064,350.124z M447.914,360.445v35.402h-38.583v-8.743
	h21.667c6.409,0,11.971-4.46,13.365-10.716C445.32,372.088,446.654,366.104,447.914,360.445z M386.575,366.287
	c0.245,0.025,0.469,0.153,0.617,0.36c1.196,1.669,3.531,4.931,3.531,4.931c0.188,0.262,0.49,0.418,0.813,0.418h2.552v8.975
	c-2.98-0.062-6.324-0.391-9.321-0.997c-3.33-0.673-6.219-1.739-7.509-2.85c-1.877-1.619-1.838-3.819-1.687-5.072
	c0.012-0.033,0.029-0.057,0.068-0.057h10.294c0.004,0,0.008,0,0.012,0c0.548,0,0.999-0.45,0.999-0.999
	c0-0.206-0.063-0.408-0.182-0.575c-0.06-0.12-0.628-1.257-1.25-2.501c-0.16-0.32-0.16-0.695,0-1.015
	c0.16-0.32,0.46-0.544,0.813-0.608c0.001,0,0.002,0,0.002,0C386.411,366.282,386.494,366.279,386.575,366.287L386.575,366.287
	L386.575,366.287z M396.085,371.995h1.566v11.769h-1.566v-1.615c0.016-0.104,0.016-0.209,0-0.313V371.995z M207.176,391.705
	c2.274,0,4.45,0.926,6.024,2.568c1.575,1.641,2.412,3.854,2.318,6.127c-0.701,16.884-1.93,46.497-3.162,76.196
	c-0.023,0.11-0.028,0.222-0.014,0.333c-0.43,10.374-0.783,18.87-1.106,26.667c-0.025,0.112-0.031,0.228-0.016,0.342
	c-0.268,6.449-0.784,18.906-0.921,22.193c-0.07,1.685-1.436,2.994-3.121,2.994h-0.002c-1.686,0-3.053-1.309-3.123-2.994
	c-0.137-3.288-0.653-15.747-0.921-22.197c0.014-0.113,0.009-0.227-0.015-0.338c-0.324-7.794-0.676-16.289-1.107-26.664
	c0.015-0.113,0.011-0.229-0.013-0.341c-1.232-29.698-2.462-59.308-3.162-76.191c-0.094-2.272,0.743-4.486,2.317-6.127
	C202.726,392.631,204.902,391.705,207.176,391.705L207.176,391.705L207.176,391.705z M269.171,392.105
	c1.321,0.497,3.639,1.499,6.819,3.533c4.904,3.137,11.496,8.557,18.163,17.689c13.335,18.265,26.989,51.408,27.841,110.873
	c0,0,0,0.001,0,0.002c0.02,1.297-0.48,2.548-1.39,3.472c-0.911,0.924-2.154,1.445-3.451,1.445c-0.023,0.001-0.045,0.002-0.067,0.004
	h-2.006c-0.898-0.8-1.586-1.984-1.859-3.052c-0.002-0.008-0.004-0.016-0.006-0.024c-3.149-11.184-15.635-43.364-55.756-55.452
	c0.144-0.191,0.3-0.372,0.438-0.566c3.133-4.383,5.122-9.8,6.369-14.264c0-0.001,0-0.002,0-0.004
	c1.014-3.66,1.708-7.401,2.073-11.181c0-0.001,0-0.001,0-0.002C268.138,425.887,269.022,408.426,269.171,392.105L269.171,392.105
	L269.171,392.105z M145.185,392.107c0.149,16.32,1.032,33.781,2.831,52.471c0.366,3.781,1.06,7.523,2.073,11.183
	c0,0.001,0,0.001,0,0.002c1.245,4.465,3.231,9.883,6.363,14.266c0.14,0.196,0.296,0.379,0.44,0.57
	c-40.112,12.09-52.597,44.264-55.746,55.448c-0.002,0.008-0.004,0.016-0.006,0.024c-0.458,1.798-2.066,3.043-3.919,3.048
	c-0.003,0-0.006,0-0.01,0c-1.297,0-2.54-0.52-3.451-1.445c-0.911-0.924-1.41-2.174-1.39-3.472c0-0.001,0-0.002,0-0.002
	c0.852-59.465,14.505-92.608,27.841-110.873c6.667-9.133,13.258-14.552,18.163-17.689
	C141.55,393.607,143.863,392.605,145.185,392.107L145.185,392.107L145.185,392.107z M409.026,397.844h38.888v7.941
	c0,6.202-0.424,12.4-1.271,18.543c-1.6,11.61-4.247,30.807-5.223,37.888c-0.265,1.918-0.212,3.866,0.155,5.766
	c1.887,9.778,8.038,41.653,8.376,43.405h-16.642c-0.265-1.154-7.686-33.425-10.021-43.582c-0.421-1.831-0.509-3.721-0.262-5.583
	c1.326-9.98,5.515-41.483,5.515-41.483c0.006-0.044,0.009-0.089,0.009-0.133c0-0.548-0.451-0.999-0.999-0.999
	c-0.001,0-0.001,0-0.001,0h-3.913c-0.385,0-0.736,0.221-0.902,0.567c0,0-10.588,22.184-15.959,33.43c-0.001,0-0.001,0-0.002,0
	c-2.069,4.337-2.836,9.182-2.202,13.946c1.833,13.829,5.615,42.354,5.811,43.836h-16.861c-0.175-1.155-4.783-31.594-6.822-45.053
	c-0.577-3.815-0.177-7.714,1.163-11.332C393.594,439.527,408.682,398.775,409.026,397.844L409.026,397.844L409.026,397.844z
	 M424.268,421.606h2.143c-0.217,1.63-4.074,30.645-5.364,40.353c-0.28,2.099-0.18,4.232,0.295,6.295
	c2.342,10.188,9.83,42.742,10.052,43.709c-0.726,0.519-10.161,7.269-14.155,10.126c-1.293,0.927-2.061,2.422-2.061,4.013v0.002
	c0,1.137,0.398,2.175,1.042,3.019h-4.758c0.683-0.887,1.064-1.977,1.064-3.109v-13.627c0.001-0.071-0.006-0.142-0.02-0.211
	c-0.014-0.11-4.074-30.727-5.952-44.887c-0.581-4.381,0.124-8.833,2.028-12.822C413.859,443.411,423.918,422.338,424.268,421.606
	L424.268,421.606L424.268,421.606z M256.076,472.26c39.926,11.64,52.131,43.381,55.21,54.305c0.25,0.978,0.736,1.847,1.381,2.559
	H211.212c0.632-0.813,1.037-1.812,1.083-2.91c0.132-3.17,0.633-15.274,0.888-21.407h20.961c4.149,0,7.883-2.55,9.395-6.414
	c3.28-8.386,8.881-22.707,9.014-23.048C253.847,474.486,255.012,473.429,256.076,472.26L256.076,472.26z M158.278,472.264
	c1.063,1.168,2.227,2.223,3.521,3.08c0.134,0.341,5.735,14.662,9.015,23.048c1.51,3.865,5.245,6.414,9.395,6.414h20.961
	c0.255,6.133,0.756,18.237,0.888,21.407c0.046,1.099,0.45,2.097,1.083,2.91H101.694c0.646-0.712,1.133-1.58,1.381-2.559
	C106.155,515.642,118.359,483.906,158.278,472.264L158.278,472.264z M164.501,476.773c1.619,0.653,3.386,1.029,5.313,1.029h30.234
	c0.403,9.686,0.73,17.586,1.038,25.007h-20.877c-3.334,0-6.32-2.039-7.534-5.145C169.702,490.064,165.505,479.337,164.501,476.773
	L164.501,476.773z M249.85,476.773c-1.003,2.564-5.2,13.291-8.173,20.891c-1.214,3.105-4.201,5.145-7.534,5.145h-20.878
	c0.309-7.421,0.636-15.32,1.039-25.007h30.234C246.465,477.802,248.231,477.427,249.85,476.773L249.85,476.773z M509.95,477.252
	c6.64,5.465,12.222,17.716,12.222,31.604c0,0.947-0.027,1.886-0.076,2.816c-0.05,0.911-0.122,1.814-0.217,2.706
	c-0.001,0.005-0.001,0.01-0.002,0.015c-0.577,5.401-1.966,10.422-3.868,14.732h-7.06v-37.086c0-0.004,0-0.009,0-0.013
	c0-0.548-0.45-0.999-0.999-0.999c-0.005,0-0.01,0-0.015,0c-0.547,0.008-0.991,0.465-0.984,1.012v37.086h-7.061
	c-2.219-5.026-3.738-11.019-4.087-17.453c-0.049-0.93-0.076-1.869-0.076-2.816C497.727,494.968,503.311,482.717,509.95,477.252
	L509.95,477.252L509.95,477.252z M548.624,495.752c1.414,7.867-1.941,19.905-10.228,29.781c-1.072,1.276-2.202,2.463-3.359,3.591
	h-13.162l18.688-22.271c0.157-0.182,0.244-0.414,0.244-0.654c0-0.547-0.451-0.999-1-0.999c-0.005,0-0.011,0-0.017,0
	c-0.294,0.005-0.57,0.14-0.756,0.367l-18.025,21.48c1.402-3.851,2.409-8.11,2.87-12.625c0.033-0.319,0.05-0.643,0.078-0.964
	c0.049-0.584,0.104-1.167,0.135-1.758c0.05-0.94,0.078-1.887,0.078-2.845c0-0.424-0.01-0.843-0.02-1.263
	C532.016,499.823,541.588,495.695,548.624,495.752L548.624,495.752L548.624,495.752z M470.726,495.754
	c7.197-0.059,17.046,4.267,25.011,12.378c-0.003,0.241-0.008,0.481-0.008,0.723c0,0.958,0.028,1.905,0.078,2.845
	c0.031,0.591,0.086,1.174,0.135,1.758c0.028,0.321,0.045,0.645,0.078,0.964c0.505,4.968,1.661,9.641,3.291,13.784l-18.995-22.639
	c-0.193-0.236-0.483-0.371-0.788-0.367c-0.543,0.007-0.987,0.455-0.987,0.999c0,0.241,0.087,0.472,0.244,0.654l18.69,22.271h-13.162
	c-1.157-1.128-2.287-2.314-3.359-3.591C472.667,515.658,469.313,503.622,470.726,495.754L470.726,495.754L470.726,495.754z
	 M392.95,513.386h17.576v12.629c0,0.825-0.328,1.616-0.911,2.198c-0.583,0.584-1.374,0.911-2.2,0.911h-29.645
	c-1.634,0-2.938-1.301-2.938-2.935c0-0.967,0.498-1.863,1.32-2.374C380.789,520.935,392.608,513.597,392.95,513.386L392.95,513.386z
	 M432.836,513.386h17.327v12.629c0,1.73-1.382,3.109-3.111,3.109h-26.858c-1.68,0-3.019-1.339-3.019-3.019v-0.002
	c0-0.95,0.455-1.838,1.227-2.39C422.474,520.799,432.476,513.643,432.836,513.386L432.836,513.386L432.836,513.386z M27.246,529.124
	c-0.004,0-0.009,0-0.014,0c-0.547,0-0.999,0.451-0.999,0.999c0,0.548,0.451,0.999,0.999,0.999c0.005,0,0.01,0,0.014,0h13.283
	c0.005,0,0.01,0,0.014,0c0.548,0,0.999-0.45,0.999-0.999c0-0.547-0.45-0.999-0.999-0.999c-0.004,0-0.009,0-0.014,0H27.246z"></path>
</svg>